<?xml version="1.0" encoding="UTF-8"?>
<!DOCTYPE svg PUBLIC "-//W3C//DTD SVG 1.1//EN" "http://www.w3.org/Graphics/SVG/1.1/DTD/svg11.dtd">
<!-- Creator: CorelDRAW -->
<svg xmlns="http://www.w3.org/2000/svg" xml:space="preserve" width="11.4689mm" height="10.5793mm" version="1.1" style="shape-rendering:geometricPrecision; text-rendering:geometricPrecision; image-rendering:optimizeQuality; fill-rule:evenodd; clip-rule:evenodd"
viewBox="0 0 21.7 20.01"
 xmlns:xlink="http://www.w3.org/1999/xlink"
 xmlns:xodm="http://www.corel.com/coreldraw/odm/2003">
 <defs>
  <style type="text/css">
   <![CDATA[
    .fil0 {fill:#74AA50}
   ]]>
  </style>
 </defs>
 <g id="Capa_x0020_1">
  <metadata id="CorelCorpID_0Corel-Layer"/>
  <g id="_2603098457840">
   <path class="fil0" d="M16.74 10.17zm-8.69 0.55l8.69 -0.55zm4.96 -9.22l0 0.09c-0,0.02 -0,0.03 -0.01,0.05 -0.04,0.23 -0.23,0.3 -0.42,0.39l-9.62 5c0.09,0.13 0.32,0.2 0.48,0.28l6.22 3.23c0.33,0.16 0.6,0.32 0.95,0.49 0.34,0.17 2.21,1.08 2.35,1.3 0.03,0.05 0.05,0.1 0.06,0.15l0 0.14c-0.04,0.26 -0.32,0.47 -0.65,0.3l-2.87 -1.5c-0.16,-0.08 -0.31,-0.15 -0.48,-0.24 -0.25,-0.12 -0.73,-0.43 -0.96,-0.48 0.02,0.2 0.43,1.45 0.51,1.73 0.13,0.43 0.36,0.87 0.05,1.12 -0.23,0.19 -1.65,0.11 -2.09,0.11 0,1.81 0.22,3.29 -1.67,4.18 -0.62,0.29 -2.41,0.18 -3.25,0.18 0,0.25 -0.11,0.8 -0.16,1.03 -0.07,0.34 -0.11,0.69 -0.17,1.01 -0.09,0.46 -0.42,0.56 -0.67,0.4 -0.31,-0.19 -0.21,-0.52 -0.14,-0.87 0.07,-0.33 0.11,-0.67 0.18,-1.01 0.26,-1.3 0.04,-1.41 0.96,-1.41 0.38,0 0.76,0 1.14,0 1.13,0 2.04,0.11 2.65,-0.91 0.49,-0.82 0.02,-2.75 0.27,-3.25 0.15,-0.31 0.49,-0.25 0.93,-0.25 0.38,0 0.76,0 1.14,0l-0.59 -1.91c-0.18,-0.52 -0.12,-0.72 -0.41,-0.86l-4.08 -2.1c0.05,0.1 0.1,0.31 0.14,0.45 0.3,0.85 -0.37,0.78 -0.78,0.78 0,0.5 0.03,0.93 -0.41,1.33 -0.39,0.35 -0.7,0.33 -1.41,0.33 0,0.25 -0,0.51 0,0.76 0,0.51 -0.08,0.85 -0.73,0.64l-2.85 -0.84c-0.52,-0.15 -0.87,-0.16 -0.88,-0.65 -0.01,-0.87 -0.04,-3.9 0.05,-4.41 0.2,-1.13 1.04,-2.06 2.05,-2.44 1.16,-0.44 2.54,-0.21 3.38,0.61 0.46,0.44 1.05,1.22 1.05,1.92l3.09 -1.57c-0.06,-0.27 -0.65,-0.97 -0.86,-1.18 -1.11,-1.1 -2.26,-1.86 -3.89,-2.13 -1.29,-0.21 -2.55,-0.06 -3.58,0.28 -1.26,0.42 -1.75,1.07 -2.11,0.61 -0.68,-0.86 2.5,-1.66 3.09,-1.75 2.35,-0.38 4.46,0.19 6.24,1.58 0.48,0.38 0.9,0.79 1.28,1.27l0.63 0.85c0.2,-0.05 1.91,-0.98 2.16,-1.1 0.72,-0.36 1.41,-0.75 2.15,-1.12 0.39,-0.19 0.7,-0.37 1.09,-0.56 0.21,-0.1 0.33,-0.17 0.52,-0.28 0.65,-0.37 0.88,-0.07 0.9,0.2zm-13.65 9.77l-2.06 -0.61c-0.2,-0.06 -0.5,-0.18 -0.7,-0.19 0,-1.55 -0.24,-3.76 0.36,-4.77 0.12,-0.2 0.31,-0.44 0.48,-0.58 1.24,-1 2.97,-0.69 3.71,0.63 0.32,0.58 0.26,0.71 0.34,1.28 0.03,0.2 0.12,0.41 0.18,0.62 0.07,0.23 0.14,0.41 0.19,0.62 -0.7,0 -0.68,0.23 -0.68,0.68 0,0.49 0.06,0.96 -0.42,0.98 -0.42,0.02 -0.98,-0.07 -1.24,0.11 -0.24,0.17 -0.16,0.76 -0.16,1.24z"/>
   <path class="fil0" d="M-0 7.54c0,1.65 0.16,2.8 0.73,4.23 0.66,1.65 1.01,1.82 1.01,3.91 0,1.06 -0.8,3.6 -0.8,3.86 0,0.26 0.18,0.47 0.47,0.47 0.42,0 0.46,-0.57 0.54,-0.9 0.1,-0.4 0.18,-0.76 0.28,-1.16 0.48,-1.92 0.65,-3.51 -0.19,-5.4 -0.46,-1.03 -0.63,-1.3 -0.93,-2.54 -0.07,-0.27 -0.14,-0.67 -0.17,-0.98 -0.14,-1.66 -0.12,-2.37 0.51,-3.93 0.09,-0.22 0.33,-0.55 0.33,-0.81 0,-0.27 -0.21,-0.38 -0.47,-0.38 -0.44,0 -0.81,1.18 -0.93,1.53 -0.19,0.56 -0.39,1.39 -0.39,2.11z"/>
   <path class="fil0" d="M2.08 2.76c0,0.67 0.85,0.59 0.85,0 0,-0.51 -0.85,-0.51 -0.85,0z"/>
  </g>
 </g>
</svg>
