<?xml version="1.0" encoding="UTF-8"?>
<!DOCTYPE svg PUBLIC "-//W3C//DTD SVG 1.1//EN" "http://www.w3.org/Graphics/SVG/1.1/DTD/svg11.dtd">
<!-- Creator: CorelDRAW -->
<svg xmlns="http://www.w3.org/2000/svg" xml:space="preserve" width="22.8769mm" height="25.2231mm" version="1.1" style="shape-rendering:geometricPrecision; text-rendering:geometricPrecision; image-rendering:optimizeQuality; fill-rule:evenodd; clip-rule:evenodd"
viewBox="0 0 260.19 286.88"
 xmlns:xlink="http://www.w3.org/1999/xlink"
 xmlns:xodm="http://www.corel.com/coreldraw/odm/2003">
 <defs>
  <style type="text/css">
   <![CDATA[
    .fil0 {fill:#74AA50}
    .fil1 {fill:#F2EFE6}
   ]]>
  </style>
 </defs>
 <g id="Capa_x0020_1">
  <metadata id="CorelCorpID_0Corel-Layer"/>
  <g id="_2323964167952">
   <polygon class="fil0" points="29.61,195.42 113.34,195.97 129.17,178.67 138.56,179.41 140.39,168.92 93.65,122.18 84.08,124.75 82.98,138.37 "/>
   <polygon class="fil1" points="41.35,172.24 71.65,141.97 79.79,147.02 48.21,178.44 "/>
   <polygon class="fil0" points="175.51,140.37 197.8,118.34 212.66,131.61 208.15,149.65 191.44,154.43 "/>
   <polygon class="fil0" points="123.5,85.97 145.79,65.8 132,47.23 124.83,24.67 109.18,8.22 83.7,5.83 100.42,28.65 105.73,39.27 96.44,46.96 84.76,44.31 64.86,26.79 64.6,49.35 74.94,62.62 102.28,71.64 "/>
   <path class="fil1" d="M87.41 261.1l85.17 0c3.9,0 8.62,2.98 10.5,5.19 2.32,2.72 4.07,6.74 4.07,11.62l-114.3 0c0,-6.73 3.21,-12.21 8.42,-15.11 1.25,-0.69 4.2,-1.7 6.14,-1.7zm25.21 -29.7l34.74 0c0.06,2.56 4.06,16.52 5.04,20.73l-44.82 0c0.98,-4.21 4.99,-18.17 5.04,-20.73zm-103.66 -19.61l0 -10.09 242.06 0c0,6.83 1.76,20.73 -10.65,20.73l-220.76 0c-5.73,0 -10.65,-4.92 -10.65,-10.65zm173.7 -71.16c0.34,-0.51 15.5,-15.19 16.25,-15.69 18.76,12.56 1.72,32.77 -10.79,21.44 -1.86,-1.69 -4.15,-3.79 -5.46,-5.75zm-96.37 -10.65c0,-3.74 2.38,-3.92 5.04,-3.92 1.88,0 23.38,22.54 25.07,24.23l18.52 18.47c2.61,2.8 2.3,7.17 -3.25,7.17 -1.69,0 -4.81,-3.97 -6.02,-5.18l-34.18 -34.18c-1.43,-1.43 -5.18,-4.37 -5.18,-6.58zm16.25 -35.3c0,10.83 4.21,18.83 -4.48,24.65 -12.41,-6.56 -20.73,2.67 -20.73,10.09 0,2.13 0.7,3.79 1.12,5.6l-13.59 13.87c-1.57,1.56 -3.78,2.96 -3.78,5.74 0,2.4 1.73,4.48 3.92,4.48 3.84,0 7.94,-5.42 10.23,-7.7 2.44,-2.44 7.14,-6.6 8.82,-9.11l37.68 37.4c-0.98,1.39 -11.3,12 -12.37,12.57 -2.5,1.33 -69.1,0.46 -75.18,0.46 2.24,-3.35 10.71,-10.99 14.15,-14.43 1.96,-1.96 5.48,-5.03 6.73,-7.33 2.07,-3.81 -1.34,-7.87 -5.2,-6.33 -2.49,0.99 -17.95,17.19 -21.98,21.22 -8.3,8.3 -3.74,6.86 -18.91,6.86l0 -146.8c0,-3.06 1.81,-6.23 3.5,-7.71 1.83,-1.61 5.47,-2.94 8.83,-2.94l36.42 0c0,14.81 7,25.1 15.6,31.47 4.14,3.06 10.47,5.98 16.89,6.64 13.63,1.41 13.29,4.36 17.94,5.6 -0.38,1.42 -1,2.11 -1.71,3.33 -1.82,3.07 -3.89,8.5 -3.89,12.36zm60.51 -14.01c0.18,0 9.53,-3.07 9.53,3.36 0,1.64 -5.38,9.6 1.98,10.89 2.25,0.39 2.36,-0.8 4.75,-0.8 1.96,0 5.04,1.69 5.04,4.48 0,3.79 -2.24,1.85 -2.24,7.28 0,8.81 11.21,1.04 11.21,10.09 0,3.91 -11.56,13.04 -14.72,16.1 -13.78,13.39 -26.56,12.83 -34.74,20.73 -2.28,2.2 -4.04,4.62 -6.57,6.31l-16.39 -16.67c-2.03,-2.03 -15.47,-14.55 -16.11,-16.95 2.19,-3.27 5.08,-3.74 7.05,-11.44 1.39,-5.43 -0.32,-11.29 -0.32,-18.81 0,-5.24 1.96,-5.92 2.8,-9.53 4.49,1.2 2.37,5.04 11.21,5.04 3.61,0 6.83,-3.74 8.82,-5.74 3.84,-3.85 20.71,-21.71 23.11,-21.71 4.9,0 5.04,3.08 5.04,6.16 0,2.05 -3,2.51 -3.56,5.86 -0.39,2.32 1.37,5.34 4.12,5.34zm-80.12 -45.39l17.93 0c-0.96,4.12 -2.77,7.28 -7.84,7.28l-0.56 0c-3.43,0 -8.05,-5.08 -9.53,-7.28zm7.28 -26.33c11.27,0 14.7,0.38 21.46,5.44 12.33,9.23 9.91,19.36 12.38,27.96 1.75,6.07 5.39,12.89 9.71,17.18 2.22,2.2 4.42,4.94 6.87,6.58 -0.82,1.22 -14.55,15.69 -16.25,15.69 -3.17,0 -8.04,-11.46 -24.08,-15.7 -7.51,-1.98 -20.12,-0.86 -27.92,-12.42 -4.56,-6.75 -5.7,-10.17 -5.7,-21.19 2.41,0.64 9.39,8.55 11.63,10.79 4.78,4.78 7.5,8.27 15.83,8.27 3.54,0 8.28,-2.52 10.24,-4.33 4.38,-4.05 4.89,-8.34 4.89,-13.6 0,-9.75 -14.5,-17.86 -19.05,-24.65zm-9.53 -1.68c0,6.53 0.97,5.73 6.58,11.35 2.28,2.28 5.78,5.25 7.42,7.7 -5.23,0 -10.47,-0.04 -15.69,0 -3.63,0.03 -4.57,0.63 -6.61,-1.24 -7.5,-6.83 -12.02,0.91 -13,1.23 -12.06,0 -27.56,-0.86 -39.2,0.03 -11.49,0.87 -20.2,9.18 -20.2,19.58l0 165.85c0,8.79 6.29,15.41 12.71,18.11 6.76,2.84 20.24,1.5 29.32,1.5 20.54,0 41.09,0 61.63,0 -0.33,3.97 -4.65,15.98 -5.04,20.73 -12.51,0 -24.42,-0.44 -31.39,12.87 -5.58,10.65 -3.81,21.87 6.18,21.87l113.18 0c12.68,0 12.33,-20.05 -0.22,-29.47 -7.84,-5.88 -12.1,-5.27 -24.99,-5.27 -0.41,-4.93 -4.69,-16.54 -5.04,-20.73 20.55,0 41.09,0 61.63,0 9.08,0 22.56,1.34 29.32,-1.5 6.36,-2.68 12.71,-9.41 12.71,-18.11l0 -132.79c0,-6.13 -8.96,-5.7 -8.96,0.56l0 113.18 -129.43 0c1.41,-2.11 3.33,-3.58 5.18,-5.47 4.71,-4.8 1.09,-1.48 7.56,-2.5 7.36,-1.16 10.79,-6.48 10.79,-13.89 0,-2.41 -0.65,-3.04 -1.12,-5.04 1.62,-2.42 3.91,-4.16 6.02,-6.31 4.96,-5.04 14.42,-7.16 21.06,-10.88 1.71,-0.96 2.4,-1.92 4.3,-2.42 3.39,2.27 5.92,6.45 9.61,8.88 11.83,7.77 31.29,0.85 31.29,-17.84 0,-9.76 -7.25,-14.66 -12.51,-19.99 -1.4,-1.42 -1,-0.63 -1.45,-2.48 -1.8,-7.45 -2.38,-8.46 -9.58,-12.27 0.19,-2.3 0.56,-1.25 0.56,-3.36 0,-6.68 -5.48,-13.31 -11.77,-13.45 -0.15,-6.73 -4.28,-13.52 -10.09,-14.01 0,-6.42 -0.24,-12.37 -7.67,-15.87 -9.02,-4.25 -14.52,2.45 -16.99,4.1 -6.47,-4.33 -14.34,-15.2 -15.13,-24.65 25.21,0 50.43,0 75.64,0 8.37,0 31.77,-1.19 36.99,1.11 14.91,6.55 -0.94,26.91 12.31,26.91 4.83,0 3.36,-11.71 3.36,-17.37 0,-9.79 -7.6,-17.54 -17.75,-19.23 -6.88,-1.14 -100.49,-0.38 -112.24,-0.38 -0.46,-5.49 -7.12,-14.32 -11.68,-18.02 -7.94,-6.45 -15.12,-8.32 -25.86,-8.32 -5,0 -11.77,1.66 -11.77,7.28z"/>
  </g>
 </g>
</svg>
