<?xml version="1.0" encoding="UTF-8"?>
<!DOCTYPE svg PUBLIC "-//W3C//DTD SVG 1.1//EN" "http://www.w3.org/Graphics/SVG/1.1/DTD/svg11.dtd">
<!-- Creator: CorelDRAW -->
<svg xmlns="http://www.w3.org/2000/svg" xml:space="preserve" width="11.3029mm" height="4.4029mm" version="1.1" style="shape-rendering:geometricPrecision; text-rendering:geometricPrecision; image-rendering:optimizeQuality; fill-rule:evenodd; clip-rule:evenodd"
viewBox="0 0 217.93 84.89"
 xmlns:xlink="http://www.w3.org/1999/xlink"
 xmlns:xodm="http://www.corel.com/coreldraw/odm/2003">
 <defs>
  <style type="text/css">
   <![CDATA[
    .fil0 {fill:#74AA50;fill-rule:nonzero}
   ]]>
  </style>
 </defs>
 <g id="Capa_x0020_1">
  <metadata id="CorelCorpID_0Corel-Layer"/>
  <path class="fil0" d="M113.5 84.89l0 -22.55 28.53 0 17.2 0 6.89 0c15.52,0 23.28,-6.87 23.28,-20.61 -0.32,-12.71 -6.99,-19.1 -20.01,-19.18 -19.2,0 -38.4,0 -57.6,0l0 19.48c0,27.42 -18.37,42.86 -54.54,42.86 -36.17,0 -57.25,-15.44 -57.25,-42.86l0 -41.97 28.53 0 0 41.73c0,13.58 11.44,20.43 28.72,20.43 17.3,0 25.99,-6.85 25.99,-20.43l0 -19.24 0 -22.49 88.09 -0.06c31.06,0 46.6,13.86 46.6,41.61 0,28.86 -13.88,43.29 -41.63,43.29l-62.8 0z"/>
 </g>
</svg>
