<?xml version="1.0" encoding="UTF-8"?>
<!DOCTYPE svg PUBLIC "-//W3C//DTD SVG 1.1//EN" "http://www.w3.org/Graphics/SVG/1.1/DTD/svg11.dtd">
<!-- Creator: CorelDRAW -->
<svg xmlns="http://www.w3.org/2000/svg" xml:space="preserve" width="25.9442mm" height="6.4794mm" version="1.1" style="shape-rendering:geometricPrecision; text-rendering:geometricPrecision; image-rendering:optimizeQuality; fill-rule:evenodd; clip-rule:evenodd"
viewBox="0 0 461.45 115.24"
 xmlns:xlink="http://www.w3.org/1999/xlink"
 xmlns:xodm="http://www.corel.com/coreldraw/odm/2003">
 <defs>
  <style type="text/css">
   <![CDATA[
    .fil0 {fill:#74AA50;fill-rule:nonzero}
   ]]>
  </style>
 </defs>
 <g id="Capa_x0020_1">
  <metadata id="CorelCorpID_0Corel-Layer"/>
  <g id="_2148460074704">
   <path class="fil0" d="M182.37 78.31l0 -20.8 26.32 0 15.87 0 6.35 0c14.32,0 21.47,-6.34 21.47,-19.01 -0.3,-11.73 -6.45,-17.62 -18.45,-17.69 -17.71,0 -35.42,0 -53.14,0l0 17.97c0,25.29 -16.95,39.54 -50.31,39.54 -33.37,0 -52.81,-14.24 -52.81,-39.54l0 -38.72 26.32 0 0 38.49c0,12.53 10.55,18.85 26.49,18.85 15.96,0 23.97,-6.32 23.97,-18.85l0 -17.75 0 -20.75 81.26 -0.06c28.65,0 42.99,12.79 42.99,38.38 0,26.62 -12.81,39.93 -38.4,39.93l-57.94 0z"/>
   <path class="fil0" d="M26.32 57.51l52.53 0 0 20.8 -78.85 0 0 -78.31 26.32 0 0 57.51zm272.84 12.56l-3.93 8.24 -26.32 0 37.24 -78.31 26.81 0 35.95 75.56 29.29 -36.41 -31.5 -39.15 31.73 0 15.68 19.44 15.62 -19.44 31.73 0 -31.5 39.15 31.5 39.16 -31.78 0 -15.57 -19.39 -15.62 19.39 -28.26 0 -3.53 0 -22.81 0 -3.93 -8.24 -40.79 0zm20.43 -42.93l-10.55 22.11 21.03 0 -10.48 -22.11z"/>
   <path class="fil0" d="M60.4 115.24c-2.12,0 -3.89,-0.3 -5.31,-0.89 -1.42,-0.59 -2.4,-1.49 -2.93,-2.68 -0.3,-0.7 -0.45,-1.47 -0.45,-2.32l2.29 0c0.03,0.59 0.14,1.1 0.32,1.52 0.39,0.86 1.11,1.5 2.16,1.92 1.04,0.42 2.36,0.62 3.95,0.62 1.41,0 2.6,-0.17 3.58,-0.5 0.98,-0.33 1.62,-0.83 1.92,-1.48 0.12,-0.29 0.18,-0.58 0.18,-0.86 0,-0.27 -0.06,-0.55 -0.18,-0.82 -0.21,-0.46 -0.6,-0.82 -1.17,-1.1 -0.57,-0.28 -1.21,-0.49 -1.94,-0.62 -0.73,-0.14 -1.66,-0.27 -2.79,-0.41l-0.77 -0.11c-1.21,-0.18 -2.24,-0.38 -3.1,-0.59 -0.86,-0.21 -1.61,-0.51 -2.27,-0.91 -0.66,-0.39 -1.13,-0.89 -1.4,-1.5 -0.18,-0.41 -0.27,-0.86 -0.27,-1.36 0,-0.53 0.11,-1.05 0.32,-1.55 0.32,-0.68 0.83,-1.26 1.54,-1.75 0.71,-0.49 1.57,-0.85 2.58,-1.1 1.01,-0.25 2.1,-0.38 3.28,-0.38 1.85,0 3.43,0.3 4.76,0.89 1.33,0.59 2.24,1.45 2.74,2.57 0.29,0.59 0.43,1.29 0.43,2.09l-2.32 0c-0.03,-0.56 -0.14,-1.03 -0.32,-1.41 -0.35,-0.79 -0.97,-1.37 -1.87,-1.76 -0.9,-0.39 -2.03,-0.58 -3.4,-0.58 -1.3,0 -2.43,0.18 -3.38,0.53 -0.95,0.36 -1.57,0.85 -1.84,1.49 -0.09,0.23 -0.14,0.46 -0.14,0.7 0,0.24 0.05,0.47 0.14,0.68 0.18,0.41 0.53,0.73 1.05,0.98 0.52,0.24 1.09,0.43 1.74,0.56 0.64,0.13 1.53,0.28 2.65,0.44l0.73 0.11c1.32,0.2 2.43,0.41 3.34,0.62 0.91,0.22 1.72,0.54 2.44,0.96 0.72,0.42 1.23,0.97 1.53,1.65 0.2,0.41 0.3,0.92 0.3,1.52 0,0.62 -0.11,1.18 -0.34,1.68 -0.47,1.05 -1.38,1.83 -2.74,2.35 -1.36,0.52 -3.02,0.78 -5.01,0.78zm13.1 -16.45l13.02 0 0 1.84 -10.79 0 0 5.2 10.72 0 0 1.84 -10.72 0 0 5.31 10.79 0 0 1.84 -13.02 0 0 -16.04zm23.62 9.29l-3.18 0 0 6.75 -2.23 0 0 -16.04 9.04 0c1.42,0 2.61,0.22 3.56,0.65 0.95,0.43 1.61,1.07 1.99,1.92 0.26,0.59 0.39,1.25 0.39,1.98 0,0.85 -0.14,1.58 -0.43,2.2 -0.38,0.83 -1.02,1.46 -1.92,1.9 -0.9,0.43 -2.04,0.65 -3.42,0.65l-0.82 0 7.77 6.75 -3.13 0 -7.61 -6.75zm-3.18 -1.84l6.38 0c1.08,0 1.93,-0.12 2.56,-0.35 0.63,-0.23 1.06,-0.63 1.28,-1.17 0.17,-0.33 0.25,-0.77 0.25,-1.32 0,-0.5 -0.07,-0.91 -0.23,-1.23 -0.24,-0.55 -0.68,-0.94 -1.31,-1.18 -0.63,-0.24 -1.48,-0.36 -2.56,-0.36l-6.38 0 0 5.61zm34.59 -7.45l-8.36 16.04 -2.5 0 -8.4 -16.04 2.5 0 7.16 13.97 7.13 -13.97 2.48 0zm3.97 0l2.23 0 0 16.04 -2.23 0 0 -16.04zm17.49 16.45c-2.45,0 -4.5,-0.44 -6.14,-1.31 -1.64,-0.87 -2.81,-2.09 -3.51,-3.67 -0.47,-1.08 -0.7,-2.23 -0.7,-3.45 0,-1.24 0.23,-2.4 0.7,-3.48 0.45,-1.02 1.13,-1.89 2.02,-2.64 0.89,-0.74 1.99,-1.31 3.28,-1.71 1.29,-0.4 2.75,-0.6 4.37,-0.6 1.59,0 3.05,0.2 4.37,0.61 1.32,0.41 2.43,1.01 3.33,1.82 0.64,0.59 1.14,1.26 1.5,2.02 0.36,0.76 0.58,1.59 0.64,2.5l-2.34 0c-0.18,-1.32 -0.72,-2.36 -1.61,-3.14 -0.67,-0.62 -1.5,-1.09 -2.51,-1.4 -1.01,-0.31 -2.12,-0.47 -3.35,-0.47 -1.88,0 -3.46,0.33 -4.75,1 -1.29,0.67 -2.2,1.59 -2.73,2.77 -0.36,0.83 -0.54,1.73 -0.54,2.7 0,0.97 0.17,1.86 0.52,2.68 0.54,1.21 1.46,2.15 2.75,2.8 1.29,0.66 2.87,0.99 4.75,0.99 1.26,0 2.4,-0.15 3.43,-0.46 1.03,-0.31 1.88,-0.78 2.54,-1.4 0.92,-0.85 1.44,-1.91 1.55,-3.18l2.32 0c-0.06,0.96 -0.27,1.82 -0.63,2.59 -0.36,0.77 -0.87,1.45 -1.52,2.02 -0.86,0.79 -1.96,1.38 -3.28,1.78 -1.33,0.4 -2.8,0.6 -4.44,0.6zm14.72 -16.45l2.23 0 0 16.04 -2.23 0 0 -16.04zm17.49 16.45c-2.45,0 -4.5,-0.43 -6.14,-1.29 -1.64,-0.86 -2.8,-2.07 -3.49,-3.61 -0.49,-1.06 -0.73,-2.23 -0.73,-3.52 0,-1.24 0.23,-2.4 0.7,-3.48 0.7,-1.56 1.87,-2.77 3.52,-3.65 1.65,-0.87 3.7,-1.31 6.16,-1.31 1.64,0 3.1,0.2 4.38,0.59 1.29,0.39 2.37,0.96 3.25,1.69 0.88,0.73 1.55,1.6 2,2.6 0.5,1.12 0.75,2.3 0.75,3.54 0,1.27 -0.26,2.46 -0.77,3.57 -0.7,1.53 -1.86,2.72 -3.5,3.58 -1.63,0.86 -3.68,1.28 -6.13,1.28zm0.02 -1.95c1.88,0 3.45,-0.33 4.72,-0.99 1.27,-0.66 2.17,-1.58 2.7,-2.76 0.36,-0.85 0.55,-1.76 0.55,-2.72 0,-0.99 -0.18,-1.89 -0.55,-2.73 -0.53,-1.18 -1.43,-2.1 -2.7,-2.76 -1.27,-0.66 -2.85,-0.99 -4.72,-0.99 -1.88,0 -3.45,0.33 -4.72,0.99 -1.27,0.66 -2.17,1.58 -2.7,2.76 -0.36,0.83 -0.54,1.74 -0.54,2.73 0,0.97 0.18,1.88 0.54,2.72 0.53,1.18 1.43,2.1 2.7,2.76 1.27,0.66 2.85,0.99 4.72,0.99zm23.15 1.95c-2.12,0 -3.89,-0.3 -5.32,-0.89 -1.42,-0.59 -2.4,-1.49 -2.93,-2.68 -0.3,-0.7 -0.46,-1.47 -0.46,-2.32l2.29 0c0.03,0.59 0.14,1.1 0.32,1.52 0.39,0.86 1.11,1.5 2.16,1.92 1.05,0.42 2.36,0.62 3.95,0.62 1.41,0 2.6,-0.17 3.58,-0.5 0.98,-0.33 1.61,-0.83 1.92,-1.48 0.12,-0.29 0.18,-0.58 0.18,-0.86 0,-0.27 -0.06,-0.55 -0.18,-0.82 -0.21,-0.46 -0.6,-0.82 -1.17,-1.1 -0.57,-0.28 -1.21,-0.49 -1.94,-0.62 -0.73,-0.14 -1.66,-0.27 -2.79,-0.41l-0.77 -0.11c-1.21,-0.18 -2.24,-0.38 -3.1,-0.59 -0.86,-0.21 -1.61,-0.51 -2.27,-0.91 -0.66,-0.39 -1.12,-0.89 -1.4,-1.5 -0.18,-0.41 -0.27,-0.86 -0.27,-1.36 0,-0.53 0.11,-1.05 0.32,-1.55 0.32,-0.68 0.83,-1.26 1.55,-1.75 0.71,-0.49 1.57,-0.85 2.58,-1.1 1.01,-0.25 2.1,-0.38 3.28,-0.38 1.85,0 3.43,0.3 4.76,0.89 1.33,0.59 2.24,1.45 2.74,2.57 0.29,0.59 0.43,1.29 0.43,2.09l-2.32 0c-0.03,-0.56 -0.14,-1.03 -0.32,-1.41 -0.35,-0.79 -0.97,-1.37 -1.87,-1.76 -0.9,-0.39 -2.03,-0.58 -3.4,-0.58 -1.3,0 -2.43,0.18 -3.38,0.53 -0.95,0.36 -1.57,0.85 -1.84,1.49 -0.09,0.23 -0.14,0.46 -0.14,0.7 0,0.24 0.05,0.47 0.14,0.68 0.18,0.41 0.53,0.73 1.04,0.98 0.52,0.24 1.1,0.43 1.74,0.56 0.64,0.13 1.53,0.28 2.65,0.44l0.73 0.11c1.32,0.2 2.43,0.41 3.34,0.62 0.91,0.22 1.72,0.54 2.44,0.96 0.72,0.42 1.23,0.97 1.53,1.65 0.2,0.41 0.3,0.92 0.3,1.52 0,0.62 -0.11,1.18 -0.34,1.68 -0.47,1.05 -1.38,1.83 -2.74,2.35 -1.36,0.52 -3.03,0.78 -5.01,0.78zm23.55 -16.45l2.23 0 0 16.04 -2.23 0 0 -16.04zm8.08 0l2.7 0 11.74 13.65 0 -13.65 2.2 0 0 16.04 -2.77 0 -11.65 -13.54 0 13.54 -2.23 0 0 -16.04zm26.83 1.93l-5.88 0 0 -1.93 13.95 0 0 1.93 -5.86 0 0 14.11 -2.2 0 0 -14.11zm12.38 -1.93l13.02 0 0 1.84 -10.79 0 0 5.2 10.72 0 0 1.84 -10.72 0 0 5.31 10.79 0 0 1.84 -13.02 0 0 -16.04zm38 7.54l0 0.16c0,0.76 -0.06,1.44 -0.18,2.06 -0.12,0.61 -0.32,1.21 -0.59,1.81 -0.71,1.57 -1.89,2.78 -3.53,3.62 -1.64,0.84 -3.64,1.26 -5.99,1.26 -1.63,0 -3.1,-0.2 -4.39,-0.59 -1.29,-0.39 -2.39,-0.96 -3.29,-1.69 -0.9,-0.73 -1.58,-1.61 -2.03,-2.62 -0.49,-1.09 -0.73,-2.26 -0.73,-3.52 0,-1.26 0.24,-2.43 0.73,-3.52 0.71,-1.56 1.91,-2.77 3.59,-3.62 1.68,-0.86 3.76,-1.28 6.22,-1.28 1.62,0 3.1,0.2 4.44,0.6 1.34,0.4 2.46,1 3.35,1.81 0.57,0.52 1.06,1.12 1.47,1.81 0.4,0.69 0.65,1.42 0.76,2.19l-2.43 0c-0.18,-1 -0.67,-1.87 -1.48,-2.61 -0.67,-0.62 -1.52,-1.08 -2.57,-1.39 -1.05,-0.3 -2.2,-0.45 -3.48,-0.45 -1.92,0 -3.55,0.33 -4.87,0.98 -1.33,0.65 -2.26,1.59 -2.81,2.82 -0.35,0.76 -0.52,1.65 -0.52,2.68 0,1.03 0.17,1.92 0.52,2.68 0.55,1.23 1.47,2.16 2.78,2.82 1.31,0.65 2.91,0.98 4.8,0.98 1.77,0 3.32,-0.3 4.63,-0.91 1.32,-0.61 2.25,-1.49 2.79,-2.66 0.21,-0.45 0.36,-0.97 0.43,-1.54l-7.13 0 0 -1.84 9.49 0zm10.29 1.75l-3.18 0 0 6.75 -2.23 0 0 -16.04 9.04 0c1.42,0 2.61,0.22 3.56,0.65 0.95,0.43 1.61,1.07 1.99,1.92 0.26,0.59 0.39,1.25 0.39,1.98 0,0.85 -0.14,1.58 -0.43,2.2 -0.38,0.83 -1.02,1.46 -1.92,1.9 -0.9,0.43 -2.04,0.65 -3.42,0.65l-0.82 0 7.77 6.75 -3.13 0 -7.61 -6.75zm-3.18 -1.84l6.38 0c1.08,0 1.93,-0.12 2.56,-0.35 0.63,-0.23 1.06,-0.63 1.28,-1.17 0.17,-0.33 0.25,-0.77 0.25,-1.32 0,-0.5 -0.07,-0.91 -0.23,-1.23 -0.24,-0.55 -0.68,-0.94 -1.31,-1.18 -0.63,-0.24 -1.48,-0.36 -2.56,-0.36l-6.38 0 0 5.61zm31.37 4.11l-10.18 0 -2.25 4.47 -2.45 0 8.24 -16.04 3.07 0 8.22 16.04 -2.41 0 -2.25 -4.47zm-0.98 -1.91l-4.11 -8.18 -0.05 0 -4.09 8.18 8.24 0zm9.72 -9.65l2.23 0 0 14.1 7.61 0 0 1.93 -9.84 0 0 -16.04zm14.15 0l13.01 0 0 1.84 -10.79 0 0 5.2 10.72 0 0 1.84 -10.72 0 0 5.31 10.79 0 0 1.84 -13.01 0 0 -16.04zm26.07 16.45c-2.12,0 -3.89,-0.3 -5.31,-0.89 -1.42,-0.59 -2.4,-1.49 -2.93,-2.68 -0.3,-0.7 -0.46,-1.47 -0.46,-2.32l2.29 0c0.03,0.59 0.14,1.1 0.32,1.52 0.39,0.86 1.11,1.5 2.16,1.92 1.05,0.42 2.36,0.62 3.95,0.62 1.41,0 2.6,-0.17 3.58,-0.5 0.98,-0.33 1.61,-0.83 1.92,-1.48 0.12,-0.29 0.18,-0.58 0.18,-0.86 0,-0.27 -0.06,-0.55 -0.18,-0.82 -0.21,-0.46 -0.6,-0.82 -1.17,-1.1 -0.57,-0.28 -1.21,-0.49 -1.94,-0.62 -0.73,-0.14 -1.66,-0.27 -2.79,-0.41l-0.77 -0.11c-1.21,-0.18 -2.24,-0.38 -3.1,-0.59 -0.86,-0.21 -1.61,-0.51 -2.27,-0.91 -0.66,-0.39 -1.12,-0.89 -1.4,-1.5 -0.18,-0.41 -0.27,-0.86 -0.27,-1.36 0,-0.53 0.11,-1.05 0.32,-1.55 0.32,-0.68 0.83,-1.26 1.54,-1.75 0.71,-0.49 1.57,-0.85 2.58,-1.1 1.01,-0.25 2.1,-0.38 3.28,-0.38 1.85,0 3.43,0.3 4.76,0.89 1.33,0.59 2.24,1.45 2.74,2.57 0.29,0.59 0.43,1.29 0.43,2.09l-2.32 0c-0.03,-0.56 -0.14,-1.03 -0.32,-1.41 -0.35,-0.79 -0.97,-1.37 -1.87,-1.76 -0.9,-0.39 -2.03,-0.58 -3.4,-0.58 -1.3,0 -2.43,0.18 -3.38,0.53 -0.95,0.36 -1.57,0.85 -1.84,1.49 -0.09,0.23 -0.14,0.46 -0.14,0.7 0,0.24 0.05,0.47 0.14,0.68 0.18,0.41 0.53,0.73 1.04,0.98 0.52,0.24 1.09,0.43 1.74,0.56 0.64,0.13 1.53,0.28 2.65,0.44l0.73 0.11c1.32,0.2 2.43,0.41 3.34,0.62 0.91,0.22 1.72,0.54 2.44,0.96 0.72,0.42 1.23,0.97 1.53,1.65 0.2,0.41 0.3,0.92 0.3,1.52 0,0.62 -0.11,1.18 -0.34,1.68 -0.47,1.05 -1.38,1.83 -2.74,2.35 -1.36,0.52 -3.02,0.78 -5.01,0.78z"/>
  </g>
 </g>
</svg>
