<?xml version="1.0" encoding="UTF-8"?>
<!DOCTYPE svg PUBLIC "-//W3C//DTD SVG 1.1//EN" "http://www.w3.org/Graphics/SVG/1.1/DTD/svg11.dtd">
<!-- Creator: CorelDRAW -->
<svg xmlns="http://www.w3.org/2000/svg" xml:space="preserve" width="85.6626mm" height="83.9935mm" version="1.1" style="shape-rendering:geometricPrecision; text-rendering:geometricPrecision; image-rendering:optimizeQuality; fill-rule:evenodd; clip-rule:evenodd"
viewBox="0 0 921.05 903.1"
 xmlns:xlink="http://www.w3.org/1999/xlink"
 xmlns:xodm="http://www.corel.com/coreldraw/odm/2003">
 <defs>
  <style type="text/css">
   <![CDATA[
    .fil0 {fill:#F2EFE6;fill-opacity:0.031373}
   ]]>
  </style>
 </defs>
 <g id="Capa_x0020_1">
  <metadata id="CorelCorpID_0Corel-Layer"/>
  <g id="_2603414844096">
   <path class="fil0" d="M259.04 469.38c0,25.97 13.64,21.74 14.53,37.64 0.3,5.34 -0.14,12.54 -0.14,18.13l-22.09 -17.49c-11.71,-10.92 -8.53,-10.32 -8.5,-31.08 0.03,-20.06 -4.39,-46.61 1.59,-54.17 6.89,-8.7 16.47,-7.67 25.39,-3.39 -2.18,4.55 -10.79,43.23 -10.79,50.37zm-259.04 -119.9l0 -9.73c0.05,-0.51 0.1,-1.02 0.16,-1.53 4.29,-35.57 47,-47.14 72.61,-29.76 13.23,8.97 15.74,23.87 22.58,36.79 6.11,-4.1 8.61,-8.29 16.9,-11.89 18.17,-7.88 52.68,-3.3 58.66,19.08 22.03,-10.57 49.71,-5.14 62.97,16.19 5.01,8.07 3.82,14.57 7.19,21.59 16.05,-1.34 18.12,-1.34 34.18,0 4.71,-9.82 9.72,-41.66 12.59,-53.97 -3.79,1.82 -22.96,6.1 -27.41,6.79 -38.78,6.04 -45.57,-25.51 -51.01,-47.09 -3.89,-15.41 -15.53,-42.51 3.67,-47.25 18.05,-4.46 19.87,26.38 23.3,40.07 7.29,29.06 4.18,30.58 34.18,23.01l106.14 -25.18c9.43,-2.37 17.6,-3.93 26.28,-6.1 10.75,-2.7 15.32,-3.6 23.38,-9 0,-15.63 -2.55,-20.15 -5.4,-32.38 -35.13,18.59 -83.14,5.3 -92.55,-38.78 -9.3,-43.6 22.12,-77.22 63.77,-78.15 0,-12.54 -3.91,-22.99 -8.99,-30.58 -23.95,0 -71.39,21.49 -75.35,1.39 -2.7,-13.68 10.14,-18.51 6.65,-38.8 -1.75,-10.13 -11.78,-21.55 -22.04,-24.78 -35.85,-11.3 -60.79,32.84 -35.72,57.33 6.55,6.4 33.72,23.86 -6.64,33.65 -10.55,2.56 -29.83,5.65 -39.24,9.33 -19.35,7.57 1.29,44.03 4.75,70.34 2.29,17.36 -16.03,23.07 -24.24,13.22 -3.71,-4.45 -8.3,-28.21 -10.36,-36.41 -2.96,-11.71 -7.34,-26.41 -6.58,-40.36 1.5,-27.6 30.14,-37.53 54.08,-39.52 -53.33,-100.79 115.13,-143.44 115.13,-26.99 3.54,-1.7 22.65,-6.5 27.23,-7.04 11.25,-1.32 20.79,1.91 27.56,6.22 19.05,12.14 28.15,64.21 25.09,73.41 -9.4,28.2 -45.28,-11.33 -64.97,26.86 -9.83,19.08 -0.17,38.89 13.89,46.25 26.02,13.62 35.86,-5.68 48.5,-11 8.88,-3.73 18.61,0.97 22.29,8.56 3.84,7.89 12.63,45.54 12,54.51 -0.71,10.1 -5.32,16.45 -9.05,23.49 11.62,0 66.99,13.79 73.76,17.98 28.72,17.78 14.57,42.79 12.59,66.56 30.2,0 39.17,5.29 54.46,21.1 12.03,12.44 20.26,33.82 13.61,57.77 -5.45,19.61 -17.1,32.02 -35.02,40.53 -28.37,13.47 -45.22,-0.81 -60.03,-4.26 0,8.86 -3.19,18.75 -4.97,25.61 -6.55,25.17 -29.96,32.84 -54.75,26.92 -13.99,-3.34 -37.94,-4.79 -43.28,-16.14 -8.14,-17.31 12.18,-23 13.19,-41.75 2.23,-41.53 -48.27,-50.58 -63.46,-22 -12.19,22.93 5.13,33.03 -4.94,47.22 -9.93,13.99 -28.95,1.72 -45.06,1.72 -0.76,9.07 -1.8,15.14 -1.8,26.99 13.39,7.08 26.67,13.33 40.78,20.39 30.07,15.04 48.78,25.3 64.15,56.38 6.57,13.29 14.7,25.45 21.05,38.32 20.46,41.5 -0.24,58.95 -0.05,102.58 0.04,9.34 1.78,21.99 -2.88,27.71 -5.33,6.53 -14.31,6.29 -20.23,0.82 -17.82,-16.46 7.13,-80.06 2.94,-105.49 -2.38,-14.44 -21.35,-44.05 -30.25,-59.7 -11.02,-19.39 -30.84,-27.19 -50.92,-37.23 -79.9,-39.95 -76.84,-39.36 -138.37,-100.89 -7.87,-7.87 -22.58,-25.56 -32.03,-29.15 -16.98,-6.45 -33.43,4.91 -38.01,17.59 -7.2,19.93 8.43,30.89 17.88,40.34 26.35,26.35 66.63,62.26 88.35,91.54 4.59,6.18 8.59,11.44 12.89,17.69 13.86,20.13 -4.12,36.68 -17.77,23.18 -3.21,-3.17 -8.75,-12.04 -12.1,-16.69 -2.65,-3.68 -3.93,-6.29 -6.67,-9.52 -21.75,-25.57 -100.66,-96.39 -107.73,-115.34 -11.56,-31.01 1.53,-42.45 9.02,-58.11 1.84,-3.84 1.73,-2.91 -0.82,-9.22l-33.34 -85.63c-2.58,-6.46 -4.37,-14.71 -10.49,-18.32 -16.86,-9.92 -31.88,5.16 -26.77,23.06l40.72 139.3c4.56,16.38 8.91,30.6 13.75,47.42 3.89,13.54 8.91,33.79 16.13,43.23 7.98,10.45 89.14,80.35 103.91,92.18l31.68 27.69c3,2.8 4.18,4.48 7.37,7.03 10.77,8.62 22.76,17.45 31.37,27.99 7.35,8.99 17.55,111.98 20.06,129.25 0.98,6.74 3.69,21.55 1.75,26.6 -2.46,6.4 -10.66,10.78 -19.36,7.35 -8.29,-3.27 -7.78,-11.5 -9.17,-21.56l-10.54 -79.4c-1.7,-11.67 -1.86,-40.43 -9.7,-49.66 -2.93,-3.45 -5.2,-4.66 -8.78,-7.41l-32.71 -28.46c-23.41,-21.91 -48.63,-41.32 -71.94,-62.98 -25.5,-23.71 -58.94,-42.95 -69.21,-78.3 -17.76,-61.12 -36.23,-122.66 -54.2,-185.06 -3.27,-11.36 -9.01,-25.28 -10.17,-39.57zm113.33 40.74c0,-15.99 -2.28,-32.38 19.79,-32.38 22.3,0 19.79,43.9 19.79,66.56 -15.03,0 -14.44,-1.12 -26.99,1.8 -2.02,-8.66 -12.59,-28.49 -12.59,-35.98zm64.76 -7.2c4.7,-3.15 8.36,-9 16.19,-9 23.4,0 17.72,32.64 17.93,39.64l1.86 55.71c-5.61,-3.76 -27.89,-25.34 -30.41,-30.75 -4.39,-9.45 -1.31,-46.06 -5.57,-55.59zm334.6 28.78c4.47,0 42.18,-23.42 58.88,11.28 17.74,36.86 -33.43,69.85 -58.9,35.51 -2.81,-3.78 -5.57,-8.78 -11.48,-10.11 -5.46,-1.23 -11.45,2.29 -14.17,6.01 -3.27,4.47 -7.08,26.65 -8.87,34.31 -2.02,8.65 -3.45,29.14 -14.03,29.14 -6.09,0 -23.22,-3.59 -26.98,-5.4 3.44,-14.77 7.2,-11.02 7.2,-34.18 0,-61.26 -92.28,-86.42 -120.54,-19.8 -4.05,9.55 -3.58,15.49 -3.58,28.8 -13.85,-6.64 -32.38,-0.56 -32.38,-17.99 0,-8.52 2.79,-17.54 4.7,-25.89l23.2 -104.52c2.1,-10.32 -3.38,-8.03 18.88,-13.51 17.36,-4.28 35.56,-8.16 52.55,-12.21 22.66,-5.41 18.71,-3.07 51.03,3.98 18.16,3.96 34.75,8.38 52.79,11.97 34.42,6.84 14.29,22.43 7.96,65.39 -1.47,9.97 3.77,17.23 13.76,17.23zm-120.53 -289.63zm0 0z"/>
   <path class="fil0" d="M647.61 525.15c0,-23.41 -1.71,-40.09 -1.74,-63.03 -0.02,-11.3 -3.4,-18.97 -1.53,-30.17 3.7,-22.15 35.62,-23.17 35.83,5.01l-1.98 37.81c0.01,5.46 0.58,14.87 0.06,19.84 -1.17,11.04 -22.13,24.83 -30.64,30.53zm147.51 -98.94l-26.98 -1.8c0,-22.66 -2.51,-66.56 19.79,-66.56 22.06,0 19.79,16.4 19.79,32.38 0,7.49 -10.57,27.32 -12.59,35.98zm-88.15 43.17l2.96 -83.39c2.14,-5.51 10.08,-11.95 16.83,-11.95 7.83,0 11.49,5.84 16.19,9 -2.71,11.63 -2.3,48.56 -5.57,55.59 -2.52,5.41 -24.8,27 -30.41,30.75zm118.73 -124.12c-8.95,-5.99 -16.27,-16.19 -35.98,-16.19 -16.52,0 -36.32,11.2 -39.58,23.39 -26.67,-12.8 -55.79,-1.79 -65.39,20.96 -2.66,6.3 -2.38,11.84 -4.77,16.82 -15.29,-1.27 -31.49,-6.83 -49.1,10.26 -21.88,21.23 -12.96,51.32 -12,83.22 0.27,9.2 -0.71,19.72 0.04,28.75 0.75,9.06 1.71,15.37 1.71,27.08 -15.24,8.07 -31.3,15.65 -46.77,23.39 -43.13,21.56 -49.28,34.15 -69.54,74.38 -10.32,20.49 -18.61,27.45 -18.61,56.94 0,38.89 18.96,34.97 2.56,108.69 -2.44,10.96 -19.25,84.17 -17.65,89.85 1.8,6.39 5.75,10.13 13.29,10.13 15.21,0 14.91,-15.71 17.63,-27.34 6.99,-29.86 21.94,-93.84 21.94,-120.17 0,-35.72 -9,-31.73 -9,-70.16 0,-13.79 20.95,-46.32 29.37,-62.37 3.91,-7.45 7.57,-11.76 13.3,-17.28 10.92,-10.5 63.8,-34.77 80.85,-43.28 70.76,-35.32 110.9,-110.93 137.32,-110.93 23.29,0 44.81,26.81 19.36,51.74l-94.18 96.51c-6.84,8.75 -20.52,24.5 -20.52,35.24 0,12.02 7.65,12.59 16.19,12.59 6.39,0 12.52,-11.85 15.92,-16.46 11.05,-14.99 17.06,-22.84 30.4,-36.16 15.24,-15.22 76.46,-74.1 82.71,-84.59 24.41,-41.02 -7.5,-61.6 -5.24,-71.76 0.65,-2.91 3.12,-7.63 4.7,-11.52l23.65 -60.9c6.56,-17.25 9.86,-38.82 27.74,-38.82 6.21,0 13.3,5.91 15.67,11.43 4.58,10.68 -9.15,46.96 -14.09,63.91 -9.16,31.43 -39.59,141.28 -49.88,169.59 -7.21,19.85 -62.39,61.51 -83.46,80.24l-72.89 63.83c-3,2.8 -4.18,4.48 -7.36,7.03 -21.34,17.08 -20.53,15.91 -23.65,44.71 -1.74,16.04 -4.7,34.13 -6.67,49.1 -2.24,17.06 -3.85,31.07 -6.24,47.73 -2.09,14.54 -8.99,38.09 11.11,38.09 16.3,0 14.68,-19.89 16.72,-35.45 1.71,-13.05 13.52,-107.72 16.45,-113.07 3.48,-6.36 8.92,-8.41 14.03,-12.95l55.6 -48.74c9.52,-7.62 17.67,-16.58 27.75,-24.41l28.01 -24.16c14.54,-11.64 42.66,-36.1 52.3,-52.04 6.18,-10.23 21.01,-64.2 25.18,-79.16 3.62,-12.99 46.38,-153.32 46.38,-162.3l0 -8.99c0,-20.09 -21.29,-41.37 -41.38,-41.37 -42.3,0 -42.13,22.6 -53.97,44.97z"/>
   <path class="fil0" d="M546.87 89.81c-21.58,-14.45 -42.65,-22.87 -69.62,-10.25 -5.86,2.74 -13.93,8.27 -18.14,12.45 -22.43,22.3 -24.79,61.59 -0.89,86.45 10.59,11.02 22.69,19.29 43.67,19.29 -13.52,28.18 -24.75,61.34 14.62,77.12 24.71,9.91 46.6,24.83 57.38,14.68 3.94,-3.71 8.94,-17.84 -7.96,-24.53l-35.55 -14.81c-19.95,-7.79 -13.05,-15.38 -2.79,-41.14 4.66,-11.69 21.2,-41.52 -2.52,-43.13 -6.19,-0.42 -11.7,4.84 -21.39,4.84 -27.11,0 -46.15,-32.95 -25.55,-57.94 11.69,-14.18 39.6,-14.53 52.1,0.81 6.19,7.6 6.98,19.35 18.43,19.35 13.75,0 16.47,-14.53 23.15,-30.82 5.37,-13.1 8.97,-32.15 21.82,-32.15 5.51,0 16.66,8.29 25.18,9 -1.91,7.14 -6.32,9.64 -9.29,17.69 -23.59,63.86 48.63,113.07 100.33,69.75 12.97,-10.86 17.12,-26.18 20.5,-40.67 39.8,21.06 38.57,-4.46 -5.39,106.14 -5.6,14.09 -11.86,29.45 -17.95,43.22 -3.08,6.96 -6.12,15.07 -8.75,21.83 -9.9,25.39 -14.7,15.97 -55.78,-0.56 -3.48,-1.4 -16.98,-7.46 -20.75,-8.03 -12.04,-1.83 -15.51,6.94 -15.51,17.3 0,11.22 68.94,34.18 73.75,34.18 27.94,0 33.91,-8.61 45.48,-35.47 8.61,-19.99 62.46,-147.42 62.46,-158.81 0,-26.49 -23.2,-35.95 -42.66,-43.69 -6.82,-2.72 -15.63,-7.01 -22.06,-8.6 -7.58,-1.88 -13.75,0.17 -18.5,6.85 -5.93,8.32 -1.69,15.69 -3.51,27.08 -5.92,37.15 -67.98,38.78 -67.98,-8.61 0,-12.2 6.2,-20.24 13.64,-25.94 7.91,-6.05 12.99,-16.32 5.76,-25.8 -5.87,-7.7 -47.61,-23.82 -55.38,-23.82 -14.72,0 -26.66,1.37 -37.37,16.6 -3.18,4.52 -11.64,24.31 -13,30.17z"/>
   <path class="fil0" d="M411.95 834.57c0,11.73 4.54,28.38 7.2,39.58 2.94,12.38 2.48,28.78 17.99,28.78 22.16,0 10.62,-31.88 5.75,-52.53 -2.37,-10.08 -2.48,-22.47 -10.63,-27.29 -9.47,-5.61 -20.31,-0.33 -20.31,11.46z"/>
  </g>
 </g>
</svg>
