<?xml version="1.0" encoding="UTF-8"?>
<!DOCTYPE svg PUBLIC "-//W3C//DTD SVG 1.1//EN" "http://www.w3.org/Graphics/SVG/1.1/DTD/svg11.dtd">
<!-- Creator: CorelDRAW -->
<svg xmlns="http://www.w3.org/2000/svg" xml:space="preserve" width="24.8297mm" height="31.5194mm" version="1.1" style="shape-rendering:geometricPrecision; text-rendering:geometricPrecision; image-rendering:optimizeQuality; fill-rule:evenodd; clip-rule:evenodd"
viewBox="0 0 79.34 100.72"
 xmlns:xlink="http://www.w3.org/1999/xlink"
 xmlns:xodm="http://www.corel.com/coreldraw/odm/2003">
 <defs>
  <style type="text/css">
   <![CDATA[
    .fil0 {fill:#F2EFE6;fill-opacity:0.031373}
   ]]>
  </style>
 </defs>
 <g id="Capa_x0020_1">
  <metadata id="CorelCorpID_0Corel-Layer"/>
  <path class="fil0" d="M3.93 90.42l51.71 0c0.06,2.64 1.83,4.9 3,6.65l-45.92 0c-5.2,0.02 -8.21,-2.1 -8.8,-6.65zm71.88 -15.88c0,2.39 3.49,2.6 3.53,0.19 0.05,-2.63 -3.53,-2.23 -3.53,-0.19zm-49.99 1.72l37.98 0c2.35,0 2.18,-3.43 -0.21,-3.43l-37.55 0c-2.35,0 -2.5,3.43 -0.21,3.43zm0.21 -11.59l37.55 0c2.4,0 2.56,-3.43 0.21,-3.43l-37.98 0c-2.29,0 -2.14,3.43 0.21,3.43zm0.64 -12.23l36.05 0c3.75,0 3.74,-3.65 0,-3.65l-35.83 0c-3.9,0 -3.47,3.65 -0.21,3.65zm21.46 -29.39c0,0.92 0.84,1.69 1.59,2.7 0.64,0.85 1.3,1.64 1.84,2.45l-15.23 0 0 -10.08 15.02 0c-0.79,1.5 -3.22,3.96 -3.22,4.93zm-15.45 -7.08l0 23.82c0,3.17 3.43,2.75 3.43,0.64l0 -8.58 18.88 0c1.08,0 1.93,-0.93 1.93,-1.93 0,-0.84 -4.05,-5.6 -4.72,-6.87 0.66,-0.98 4.72,-5.75 4.72,-6.87 0,-0.85 -0.97,-1.72 -1.93,-1.72l-20.6 0c-1.22,0 -1.72,1.14 -1.72,1.5zm-19.04 -12.02l61.95 0 0 62.65c0,4.34 3.65,2.66 3.65,1.29l0 -65.87c0,-2.65 -4.05,-1.93 -6.65,-1.93l-55.57 0c-1.3,0 -5.05,-0.32 -6.27,0.93 -0.44,0.45 -0.38,0.87 -0.38,1.43l0 11.15 0 73.18 -8.37 0c-4.07,0 -1.87,10.82 6.03,13.28 1.72,0.54 3.5,0.66 5.77,0.66l53.79 -0.27c1.92,-0.63 4.2,-0.24 7.48,-2.82 5.07,-3.98 4.16,-9.99 4.16,-16.22 0,-2.02 -2.63,-2.45 -3.37,-0.79 -0.97,2.2 0.57,8.36 -1.01,11.86 -0.34,0.74 -0.8,1.36 -1.36,1.86 -3.45,3.05 -8.35,3.06 -11.89,0.62 -4.61,-3.18 -1.2,-8.4 -4.69,-8.4l-43.13 0c0,-27.59 -0.16,-55.26 -0.16,-82.6z"/>
 </g>
</svg>
