<?xml version="1.0" encoding="UTF-8"?>
<!DOCTYPE svg PUBLIC "-//W3C//DTD SVG 1.1//EN" "http://www.w3.org/Graphics/SVG/1.1/DTD/svg11.dtd">
<!-- Creator: CorelDRAW -->
<svg xmlns="http://www.w3.org/2000/svg" xml:space="preserve" width="35.2329mm" height="32.4999mm" version="1.1" style="shape-rendering:geometricPrecision; text-rendering:geometricPrecision; image-rendering:optimizeQuality; fill-rule:evenodd; clip-rule:evenodd"
viewBox="0 0 157.21 145.02"
 xmlns:xlink="http://www.w3.org/1999/xlink"
 xmlns:xodm="http://www.corel.com/coreldraw/odm/2003">
 <defs>
  <style type="text/css">
   <![CDATA[
    .fil0 {fill:#74AA50;fill-opacity:0.050980}
   ]]>
  </style>
 </defs>
 <g id="Capa_x0020_1">
  <metadata id="CorelCorpID_0Corel-Layer"/>
  <g id="_2603247105824">
   <path class="fil0" d="M35.93 73.7zm62.95 3.99l-62.95 -3.99zm-35.93 -66.8l0 0.68c0.01,0.11 0.02,0.22 0.05,0.33 0.32,1.69 1.63,2.16 3.03,2.84l69.7 36.23c-0.69,0.94 -2.3,1.46 -3.48,2.05l-45.03 23.44c-2.36,1.18 -4.38,2.34 -6.86,3.58 -2.45,1.23 -16.02,7.84 -16.99,9.42 -0.21,0.34 -0.34,0.71 -0.41,1.07l0 1.05c0.32,1.87 2.31,3.4 4.72,2.2l20.76 -10.87c1.18,-0.58 2.22,-1.11 3.48,-1.74 1.81,-0.9 5.31,-3.09 6.96,-3.48 -0.12,1.48 -3.09,10.48 -3.72,12.55 -0.95,3.09 -2.62,6.29 -0.37,8.12 1.7,1.38 11.95,0.82 15.15,0.82 0,13.11 -1.61,23.83 12.07,30.3 4.46,2.11 17.47,1.33 23.55,1.33 0,1.82 0.82,5.79 1.15,7.45 0.49,2.49 0.81,4.97 1.27,7.33 0.64,3.33 3.04,4.03 4.85,2.93 2.26,-1.38 1.52,-3.73 1,-6.32 -0.47,-2.36 -0.79,-4.83 -1.28,-7.32 -1.85,-9.44 -0.28,-10.23 -6.98,-10.21 -2.76,0.01 -5.53,0 -8.29,0 -8.17,0 -14.81,0.78 -19.23,-6.57 -3.57,-5.93 -0.16,-19.91 -1.95,-23.54 -1.1,-2.23 -3.56,-1.83 -6.77,-1.83 -2.76,0 -5.53,0 -8.29,0l4.26 -13.86c1.29,-3.79 0.87,-5.19 3,-6.21l29.59 -15.24c-0.35,0.74 -0.7,2.26 -1.04,3.25 -2.15,6.18 2.66,5.65 5.65,5.65 0,3.59 -0.22,6.75 2.99,9.6 2.85,2.53 5.08,2.37 10.21,2.37 0,1.84 0.01,3.69 -0,5.53 -0.02,3.71 0.6,6.15 5.26,4.64l20.64 -6.08c3.76,-1.08 6.3,-1.14 6.36,-4.69 0.11,-6.31 0.28,-28.29 -0.36,-31.92 -1.44,-8.16 -7.54,-14.94 -14.83,-17.72 -8.38,-3.19 -18.38,-1.53 -24.52,4.39 -3.31,3.2 -7.59,8.82 -7.59,13.9l-22.42 -11.36c0.46,-1.99 4.74,-7.06 6.22,-8.52 8.03,-7.96 16.39,-13.47 28.17,-15.43 9.34,-1.56 18.5,-0.43 25.91,2.04 9.16,3.04 12.69,7.73 15.27,4.45 4.92,-6.26 -18.11,-12.02 -22.36,-12.71 -17.02,-2.77 -32.35,1.38 -45.23,11.45 -3.47,2.72 -6.49,5.7 -9.25,9.17l-4.57 6.18c-1.44,-0.34 -13.85,-7.08 -15.66,-7.98 -5.24,-2.62 -10.24,-5.43 -15.56,-8.09 -2.83,-1.41 -5.06,-2.68 -7.88,-4.09 -1.49,-0.75 -2.4,-1.26 -3.79,-2.04 -4.72,-2.66 -6.37,-0.47 -6.55,1.47zm98.87 70.79l14.92 -4.43c1.47,-0.42 3.61,-1.29 5.04,-1.41 0,-11.19 1.76,-27.24 -2.63,-34.53 -0.89,-1.48 -2.21,-3.2 -3.47,-4.21 -8.98,-7.22 -21.53,-5.01 -26.86,4.55 -2.35,4.22 -1.86,5.14 -2.43,9.24 -0.2,1.44 -0.89,2.96 -1.33,4.5 -0.48,1.69 -1,2.95 -1.36,4.48 5.04,0 4.94,1.65 4.91,4.91 -0.03,3.55 -0.44,6.94 3.05,7.08 3.01,0.12 7.14,-0.51 9,0.83 1.76,1.27 1.15,5.48 1.15,8.98z"/>
   <path class="fil0" d="M157.21 54.67c0,11.92 -1.19,20.32 -5.3,30.62 -4.79,11.97 -7.28,13.19 -7.28,28.33 0,7.66 5.83,26.11 5.83,27.94 0,1.87 -1.28,3.38 -3.38,3.38 -3.07,0 -3.33,-4.11 -3.93,-6.51 -0.73,-2.9 -1.29,-5.5 -2.03,-8.41 -3.51,-13.9 -4.72,-25.41 1.34,-39.13 3.31,-7.48 4.58,-9.45 6.77,-18.41 0.48,-1.98 1.04,-4.89 1.22,-7.07 0.99,-11.99 0.88,-17.18 -3.72,-28.51 -0.65,-1.61 -2.42,-4.01 -2.42,-5.87 0,-1.96 1.5,-2.76 3.38,-2.76 3.16,0 5.87,8.55 6.72,11.09 1.35,4.05 2.8,10.04 2.8,15.32z"/>
   <path class="fil0" d="M142.17 19.97c0,4.82 -6.14,4.28 -6.14,0 0,-3.71 6.14,-3.71 6.14,0z"/>
  </g>
 </g>
</svg>
