<?xml version="1.0" encoding="UTF-8"?>
<!DOCTYPE svg PUBLIC "-//W3C//DTD SVG 1.1//EN" "http://www.w3.org/Graphics/SVG/1.1/DTD/svg11.dtd">
<!-- Creator: CorelDRAW -->
<svg xmlns="http://www.w3.org/2000/svg" xml:space="preserve" width="153.388mm" height="102.445mm" version="1.1" style="shape-rendering:geometricPrecision; text-rendering:geometricPrecision; image-rendering:optimizeQuality; fill-rule:evenodd; clip-rule:evenodd"
viewBox="0 0 6033.23 4029.46"
 xmlns:xlink="http://www.w3.org/1999/xlink"
 xmlns:xodm="http://www.corel.com/coreldraw/odm/2003">
 <defs>
  <style type="text/css">
   <![CDATA[
    .str0 {stroke:#F2EFE6;stroke-width:3;stroke-miterlimit:22.9256;stroke-opacity:0.101961}
    .fil0 {fill:none;fill-rule:nonzero}
   ]]>
  </style>
 </defs>
 <g id="Contenido_x0020_de_x0020_PowerClip">
  <metadata id="CorelCorpID_0Corel-Layer"/>
  <g id="_2288959987152">
   <path class="fil0 str0" d="M1807.51 1585.5l-110.69 -153.12 193.72 -140.04 116.78 -84.42 46.76 -33.81c105.37,-76.17 124.33,-160.9 56.88,-254.2 -64.58,-84.72 -141.2,-95.34 -229.95,-32.02 -130.37,94.24 -260.72,188.48 -391.09,282.72l95.61 132.27c134.58,186.16 85.64,381.17 -159.94,558.7 -245.58,177.53 -464.48,176.18 -599.07,-10l-206.01 -284.97 193.73 -140.05 204.82 283.32c66.64,92.18 177.94,82.56 295.25,-2.24 117.44,-84.9 142.82,-174.06 76.16,-266.26l-94.42 -130.61 -110.39 -152.71 597.83 -432.8c210.88,-152.44 384.42,-134.6 520.6,53.78 141.63,195.92 118.19,362.02 -70.19,498.2l-426.41 308.26z"/>
   <g>
    <path class="fil0 str0" d="M3771.36 2685.65l-110.69 -153.11 193.72 -140.05 116.78 -84.43 46.76 -33.8c105.37,-76.17 124.33,-160.91 56.89,-254.2 -64.58,-84.72 -141.2,-95.34 -229.96,-32.01 -130.36,94.24 -260.72,188.48 -391.08,282.73l95.61 132.27c134.58,186.16 85.64,381.17 -159.94,558.7 -245.57,177.53 -464.47,176.18 -599.07,-9.99l-206.01 -284.97 193.73 -140.05 204.82 283.32c66.64,92.18 177.95,82.56 295.25,-2.24 117.44,-84.9 142.81,-174.06 76.16,-266.27l-94.42 -130.61 -110.39 -152.7 597.83 -432.81c210.87,-152.45 384.42,-134.6 520.6,53.77 141.64,195.92 118.2,362.02 -70.18,498.2l-426.41 308.26z"/>
    <path class="fil0 str0" d="M5444.02 1476.44l-110.69 -153.11 193.72 -140.05 116.78 -84.43 46.76 -33.8c105.37,-76.17 124.33,-160.9 56.88,-254.2 -64.58,-84.72 -141.2,-95.34 -229.95,-32.02 -130.37,94.24 -260.72,188.48 -391.09,282.73l95.61 132.27c134.58,186.16 85.64,381.17 -159.93,558.7 -245.58,177.53 -464.48,176.18 -599.07,-9.99l-206.01 -284.97 193.73 -140.05 204.82 283.32c66.64,92.18 177.94,82.56 295.25,-2.24 117.44,-84.9 142.81,-174.06 76.16,-266.27l-94.43 -130.61 -110.39 -152.7 597.83 -432.81c210.87,-152.44 384.42,-134.6 520.6,53.77 141.63,195.92 118.2,362.02 -70.18,498.2l-426.41 308.26z"/>
   </g>
   <path class="fil0 str0" d="M1755.29 3088.18l-163.49 -226.15 286.13 -206.85 172.5 -124.7 69.06 -49.93c155.63,-112.5 183.64,-237.66 84.02,-375.46 -95.39,-125.13 -208.56,-140.82 -339.65,-47.29 -192.55,139.2 -385.1,278.4 -577.65,417.6l141.23 195.36c198.78,274.97 126.49,562.99 -236.23,825.21 -362.72,262.22 -686.04,260.23 -884.84,-14.76l-304.28 -420.91 286.14 -206.86 302.52 418.47c98.43,136.16 262.83,121.95 436.1,-3.31 173.47,-125.41 210.94,-257.1 112.49,-393.28l-139.47 -192.92 -163.06 -225.55 883.01 -639.26c311.47,-225.17 567.8,-198.81 768.94,79.43 209.2,289.38 174.58,534.72 -103.66,735.86l-629.82 455.31z"/>
   <path class="fil0 str0" d="M4058.46 1423.17l-163.49 -226.15 286.13 -206.85 172.5 -124.7 69.06 -49.93c155.63,-112.51 183.64,-237.66 84.02,-375.46 -95.39,-125.13 -208.56,-140.82 -339.65,-47.29 -192.56,139.2 -385.1,278.4 -577.65,417.6l141.23 195.36c198.78,274.97 126.49,562.99 -236.23,825.21 -362.72,262.22 -686.04,260.23 -884.84,-14.77l-304.28 -420.9 286.14 -206.86 302.52 418.47c98.43,136.16 262.83,121.95 436.09,-3.31 173.47,-125.4 210.94,-257.09 112.5,-393.28l-139.47 -192.92 -163.06 -225.55 883.01 -639.26c311.47,-225.17 567.8,-198.81 768.94,79.42 209.2,289.38 174.58,534.72 -103.66,735.86l-629.83 455.31z"/>
   <path class="fil0 str0" d="M4959.09 3426.12l-163.49 -226.15 286.13 -206.85 172.5 -124.7 69.07 -49.93c155.63,-112.51 183.64,-237.66 84.02,-375.46 -95.39,-125.13 -208.56,-140.82 -339.65,-47.29 -192.55,139.2 -385.1,278.39 -577.65,417.59l141.23 195.36c198.78,274.97 126.49,562.99 -236.23,825.2 -362.72,262.21 -686.04,260.23 -884.84,-14.77l-304.28 -420.91 286.14 -206.86 302.51 418.47c98.43,136.16 262.83,121.95 436.1,-3.3 173.47,-125.4 210.94,-257.1 112.5,-393.28l-139.47 -192.92 -163.05 -225.55 883.01 -639.26c311.47,-225.16 567.8,-198.81 768.94,79.43 209.2,289.38 174.57,534.72 -103.66,735.86l-629.83 455.31z"/>
  </g>
 </g>
</svg>
