<?xml version="1.0" encoding="UTF-8"?>
<!DOCTYPE svg PUBLIC "-//W3C//DTD SVG 1.1//EN" "http://www.w3.org/Graphics/SVG/1.1/DTD/svg11.dtd">
<!-- Creator: CorelDRAW -->
<svg xmlns="http://www.w3.org/2000/svg" xml:space="preserve" width="8.3339mm" height="10.5792mm" version="1.1" style="shape-rendering:geometricPrecision; text-rendering:geometricPrecision; image-rendering:optimizeQuality; fill-rule:evenodd; clip-rule:evenodd"
viewBox="0 0 11.88 15.09"
 xmlns:xlink="http://www.w3.org/1999/xlink"
 xmlns:xodm="http://www.corel.com/coreldraw/odm/2003">
 <defs>
  <style type="text/css">
   <![CDATA[
    .fil0 {fill:#F2EFE6}
   ]]>
  </style>
 </defs>
 <g id="Capa_x0020_1">
  <metadata id="CorelCorpID_0Corel-Layer"/>
  <path class="fil0" d="M0.59 13.54l7.74 0c0.01,0.4 0.27,0.73 0.45,1l-6.88 0c-0.78,0 -1.23,-0.31 -1.32,-1zm10.77 -2.38c0,0.36 0.52,0.39 0.53,0.03 0.01,-0.39 -0.53,-0.33 -0.53,-0.03zm-7.49 0.26l5.69 0c0.35,0 0.33,-0.51 -0.03,-0.51l-5.62 0c-0.35,0 -0.37,0.51 -0.03,0.51zm0.03 -1.74l5.62 0c0.36,0 0.38,-0.51 0.03,-0.51l-5.69 0c-0.34,0 -0.32,0.51 0.03,0.51zm0.1 -1.83l5.4 0c0.56,0 0.56,-0.55 0,-0.55l-5.37 0c-0.58,0 -0.52,0.55 -0.03,0.55zm3.21 -4.4c0,0.14 0.13,0.25 0.24,0.4 0.1,0.13 0.19,0.25 0.28,0.37l-2.28 0 0 -1.51 2.25 0c-0.12,0.22 -0.48,0.59 -0.48,0.74zm-2.31 -1.06l0 3.57c0,0.47 0.51,0.41 0.51,0.1l0 -1.29 2.83 0c0.16,0 0.29,-0.14 0.29,-0.29 0,-0.13 -0.61,-0.84 -0.71,-1.03 0.1,-0.15 0.71,-0.86 0.71,-1.03 0,-0.13 -0.15,-0.26 -0.29,-0.26l-3.09 0c-0.18,0 -0.26,0.17 -0.26,0.23zm-2.85 -1.8l9.28 0 0 9.38c0,0.65 0.55,0.4 0.55,0.19l0 -9.87c0,-0.4 -0.61,-0.29 -1,-0.29l-8.32 0c-0.2,0 -0.76,-0.05 -0.94,0.14 -0.07,0.07 -0.06,0.13 -0.06,0.21l0 1.67 0 10.96 -1.25 0c-0.61,0 -0.28,1.62 0.9,1.99 0.26,0.08 0.52,0.1 0.86,0.1l8.06 -0.04c0.29,-0.09 0.63,-0.04 1.12,-0.42 0.76,-0.6 0.62,-1.5 0.62,-2.43 0,-0.3 -0.39,-0.37 -0.5,-0.12 -0.15,0.33 0.09,1.25 -0.15,1.78 -0.05,0.11 -0.12,0.2 -0.2,0.28 -0.52,0.46 -1.25,0.46 -1.78,0.09 -0.69,-0.48 -0.18,-1.26 -0.7,-1.26l-6.46 0c0,-4.13 -0.02,-8.28 -0.02,-12.37z"/>
 </g>
</svg>
