<?xml version="1.0" encoding="UTF-8"?>
<!DOCTYPE svg PUBLIC "-//W3C//DTD SVG 1.1//EN" "http://www.w3.org/Graphics/SVG/1.1/DTD/svg11.dtd">
<!-- Creator: CorelDRAW -->
<svg xmlns="http://www.w3.org/2000/svg" xml:space="preserve" width="25.9441mm" height="6.4794mm" version="1.1" style="shape-rendering:geometricPrecision; text-rendering:geometricPrecision; image-rendering:optimizeQuality; fill-rule:evenodd; clip-rule:evenodd"
viewBox="0 0 463.9 115.86"
 xmlns:xlink="http://www.w3.org/1999/xlink"
 xmlns:xodm="http://www.corel.com/coreldraw/odm/2003">
 <defs>
  <style type="text/css">
   <![CDATA[
    .fil1 {fill:#222223;fill-rule:nonzero}
    .fil0 {fill:#74AA50;fill-rule:nonzero}
   ]]>
  </style>
 </defs>
 <g id="Capa_x0020_1">
  <metadata id="CorelCorpID_0Corel-Layer"/>
  <path class="fil0" d="M183.35 78.73l0 -20.91 26.46 0 15.95 0 6.39 0c14.39,0 21.59,-6.37 21.59,-19.11 -0.3,-11.79 -6.49,-17.71 -18.55,-17.79 -17.81,0 -35.61,0 -53.42,0l0 18.07c0,25.43 -17.04,39.75 -50.58,39.75 -33.54,0 -53.09,-14.32 -53.09,-39.75l0 -38.92 26.46 0 0 38.7c0,12.59 10.61,18.95 26.63,18.95 16.04,0 24.1,-6.35 24.1,-18.95l0 -17.84 0 -20.86 81.7 -0.06c28.8,0 43.21,12.85 43.21,38.59 0,26.76 -12.87,40.14 -38.6,40.14l-58.24 0z"/>
  <path class="fil1" d="M26.46 57.81l52.81 0 0 20.91 -79.27 0 0 -78.73 26.46 0 0 57.81zm274.29 12.63l-3.96 8.28 -26.46 0 37.44 -78.73 26.95 0 36.14 75.96 29.44 -36.6 -31.67 -39.35 31.9 0 15.76 19.55 15.7 -19.55 31.9 0 -31.67 39.35 31.67 39.37 -31.95 0 -15.65 -19.49 -15.7 19.49 -28.41 0 -3.54 0 -22.94 0 -3.95 -8.28 -41 0zm20.54 -43.16l-10.61 22.23 21.14 0 -10.53 -22.23z"/>
  <path class="fil1" d="M60.72 115.86c-2.13,0 -3.91,-0.3 -5.34,-0.89 -1.43,-0.59 -2.41,-1.49 -2.94,-2.69 -0.31,-0.7 -0.46,-1.48 -0.46,-2.33l2.31 0c0.03,0.59 0.14,1.11 0.32,1.53 0.4,0.87 1.12,1.51 2.17,1.93 1.05,0.42 2.37,0.63 3.97,0.63 1.42,0 2.61,-0.17 3.6,-0.5 0.98,-0.33 1.62,-0.83 1.93,-1.48 0.12,-0.29 0.18,-0.58 0.18,-0.87 0,-0.27 -0.06,-0.55 -0.18,-0.82 -0.21,-0.46 -0.61,-0.83 -1.18,-1.11 -0.57,-0.28 -1.22,-0.49 -1.95,-0.63 -0.73,-0.14 -1.67,-0.27 -2.81,-0.41l-0.78 -0.11c-1.22,-0.18 -2.26,-0.38 -3.12,-0.59 -0.86,-0.21 -1.62,-0.52 -2.28,-0.91 -0.66,-0.4 -1.13,-0.9 -1.41,-1.51 -0.18,-0.41 -0.27,-0.87 -0.27,-1.37 0,-0.53 0.11,-1.05 0.32,-1.55 0.32,-0.69 0.84,-1.27 1.55,-1.76 0.72,-0.49 1.58,-0.86 2.59,-1.11 1.01,-0.25 2.11,-0.38 3.3,-0.38 1.86,0 3.45,0.3 4.78,0.89 1.33,0.59 2.25,1.45 2.75,2.58 0.29,0.59 0.43,1.29 0.43,2.1l-2.33 0c-0.03,-0.56 -0.14,-1.04 -0.32,-1.41 -0.35,-0.79 -0.98,-1.38 -1.88,-1.77 -0.9,-0.39 -2.04,-0.58 -3.41,-0.58 -1.31,0 -2.44,0.18 -3.4,0.54 -0.96,0.36 -1.58,0.86 -1.85,1.5 -0.09,0.23 -0.14,0.46 -0.14,0.71 0,0.24 0.05,0.47 0.14,0.68 0.18,0.41 0.53,0.74 1.05,0.98 0.52,0.24 1.1,0.43 1.75,0.56 0.65,0.13 1.53,0.28 2.66,0.45l0.73 0.11c1.32,0.2 2.44,0.41 3.36,0.63 0.91,0.22 1.73,0.54 2.46,0.96 0.72,0.42 1.24,0.97 1.54,1.66 0.2,0.41 0.3,0.92 0.3,1.53 0,0.62 -0.11,1.19 -0.34,1.69 -0.47,1.05 -1.39,1.84 -2.75,2.36 -1.36,0.53 -3.04,0.79 -5.04,0.79zm13.17 -16.53l13.09 0 0 1.85 -10.85 0 0 5.23 10.78 0 0 1.85 -10.78 0 0 5.34 10.85 0 0 1.85 -13.09 0 0 -16.12zm23.75 9.34l-3.2 0 0 6.78 -2.24 0 0 -16.12 9.09 0c1.43,0 2.62,0.22 3.57,0.65 0.95,0.43 1.62,1.08 2,1.93 0.26,0.59 0.39,1.26 0.39,1.99 0,0.85 -0.14,1.59 -0.43,2.22 -0.38,0.84 -1.02,1.47 -1.93,1.91 -0.91,0.43 -2.05,0.65 -3.44,0.65l-0.82 0 7.81 6.78 -3.15 0 -7.65 -6.78zm-3.2 -1.85l6.42 0c1.08,0 1.94,-0.12 2.57,-0.35 0.63,-0.24 1.06,-0.63 1.29,-1.18 0.17,-0.33 0.25,-0.78 0.25,-1.32 0,-0.5 -0.08,-0.91 -0.23,-1.23 -0.24,-0.55 -0.68,-0.94 -1.31,-1.19 -0.63,-0.24 -1.49,-0.36 -2.57,-0.36l-6.42 0 0 5.64zm34.78 -7.49l-8.4 16.12 -2.51 0 -8.45 -16.12 2.51 0 7.19 14.04 7.17 -14.04 2.49 0zm3.99 0l2.24 0 0 16.12 -2.24 0 0 -16.12zm17.58 16.53c-2.47,0 -4.53,-0.44 -6.18,-1.31 -1.65,-0.88 -2.83,-2.1 -3.53,-3.69 -0.47,-1.08 -0.71,-2.24 -0.71,-3.47 0,-1.25 0.24,-2.41 0.71,-3.49 0.46,-1.02 1.13,-1.9 2.03,-2.65 0.9,-0.75 2,-1.32 3.3,-1.72 1.3,-0.4 2.77,-0.61 4.4,-0.61 1.6,0 3.06,0.21 4.4,0.62 1.33,0.41 2.45,1.02 3.35,1.83 0.64,0.59 1.14,1.27 1.51,2.03 0.37,0.76 0.58,1.6 0.64,2.51l-2.35 0c-0.18,-1.32 -0.72,-2.37 -1.62,-3.15 -0.67,-0.62 -1.51,-1.09 -2.52,-1.41 -1.01,-0.31 -2.13,-0.47 -3.37,-0.47 -1.89,0 -3.48,0.34 -4.77,1 -1.29,0.67 -2.21,1.6 -2.74,2.79 -0.37,0.84 -0.55,1.74 -0.55,2.72 0,0.97 0.18,1.87 0.53,2.69 0.55,1.22 1.47,2.16 2.76,2.82 1.29,0.66 2.88,0.99 4.77,0.99 1.26,0 2.41,-0.16 3.45,-0.47 1.03,-0.31 1.89,-0.78 2.56,-1.4 0.93,-0.85 1.45,-1.92 1.55,-3.2l2.33 0c-0.06,0.96 -0.27,1.83 -0.64,2.6 -0.36,0.78 -0.87,1.45 -1.53,2.03 -0.87,0.79 -1.97,1.39 -3.3,1.79 -1.33,0.4 -2.82,0.6 -4.46,0.6zm14.79 -16.53l2.24 0 0 16.12 -2.24 0 0 -16.12zm17.58 16.53c-2.47,0 -4.53,-0.43 -6.18,-1.3 -1.65,-0.87 -2.82,-2.08 -3.5,-3.63 -0.49,-1.07 -0.73,-2.25 -0.73,-3.54 0,-1.25 0.24,-2.41 0.71,-3.49 0.7,-1.57 1.88,-2.79 3.54,-3.66 1.66,-0.88 3.72,-1.31 6.19,-1.31 1.65,0 3.11,0.2 4.41,0.59 1.29,0.4 2.38,0.96 3.27,1.7 0.88,0.74 1.55,1.61 2.01,2.61 0.5,1.13 0.75,2.31 0.75,3.56 0,1.28 -0.26,2.47 -0.78,3.59 -0.7,1.54 -1.87,2.74 -3.52,3.6 -1.65,0.86 -3.7,1.29 -6.17,1.29zm0.02 -1.96c1.89,0 3.47,-0.33 4.75,-0.99 1.28,-0.66 2.18,-1.59 2.72,-2.77 0.37,-0.85 0.55,-1.77 0.55,-2.74 0,-0.99 -0.18,-1.9 -0.55,-2.74 -0.53,-1.19 -1.44,-2.11 -2.72,-2.78 -1.28,-0.66 -2.86,-0.99 -4.75,-0.99 -1.89,0 -3.47,0.33 -4.75,0.99 -1.28,0.66 -2.19,1.59 -2.72,2.78 -0.36,0.84 -0.55,1.75 -0.55,2.74 0,0.97 0.18,1.89 0.55,2.74 0.53,1.19 1.44,2.11 2.72,2.77 1.28,0.66 2.86,0.99 4.75,0.99zm23.27 1.96c-2.13,0 -3.91,-0.3 -5.34,-0.89 -1.43,-0.59 -2.41,-1.49 -2.94,-2.69 -0.3,-0.7 -0.46,-1.48 -0.46,-2.33l2.3 0c0.03,0.59 0.14,1.11 0.32,1.53 0.4,0.87 1.12,1.51 2.17,1.93 1.05,0.42 2.38,0.63 3.97,0.63 1.41,0 2.61,-0.17 3.6,-0.5 0.98,-0.33 1.63,-0.83 1.93,-1.48 0.12,-0.29 0.18,-0.58 0.18,-0.87 0,-0.27 -0.06,-0.55 -0.18,-0.82 -0.21,-0.46 -0.6,-0.83 -1.18,-1.11 -0.57,-0.28 -1.22,-0.49 -1.95,-0.63 -0.73,-0.14 -1.67,-0.27 -2.81,-0.41l-0.78 -0.11c-1.22,-0.18 -2.26,-0.38 -3.12,-0.59 -0.86,-0.21 -1.62,-0.52 -2.28,-0.91 -0.66,-0.4 -1.13,-0.9 -1.4,-1.51 -0.18,-0.41 -0.27,-0.87 -0.27,-1.37 0,-0.53 0.11,-1.05 0.32,-1.55 0.32,-0.69 0.84,-1.27 1.55,-1.76 0.72,-0.49 1.58,-0.86 2.59,-1.11 1.01,-0.25 2.11,-0.38 3.3,-0.38 1.86,0 3.45,0.3 4.78,0.89 1.33,0.59 2.25,1.45 2.75,2.58 0.29,0.59 0.43,1.29 0.43,2.1l-2.33 0c-0.03,-0.56 -0.14,-1.04 -0.32,-1.41 -0.35,-0.79 -0.98,-1.38 -1.88,-1.77 -0.91,-0.39 -2.04,-0.58 -3.42,-0.58 -1.31,0 -2.44,0.18 -3.4,0.54 -0.96,0.36 -1.58,0.86 -1.85,1.5 -0.09,0.23 -0.14,0.46 -0.14,0.71 0,0.24 0.05,0.47 0.14,0.68 0.18,0.41 0.53,0.74 1.05,0.98 0.52,0.24 1.1,0.43 1.75,0.56 0.65,0.13 1.53,0.28 2.66,0.45l0.73 0.11c1.32,0.2 2.44,0.41 3.36,0.63 0.91,0.22 1.73,0.54 2.46,0.96 0.72,0.42 1.24,0.97 1.54,1.66 0.2,0.41 0.3,0.92 0.3,1.53 0,0.62 -0.11,1.19 -0.34,1.69 -0.47,1.05 -1.39,1.84 -2.75,2.36 -1.36,0.53 -3.04,0.79 -5.04,0.79zm23.68 -16.53l2.24 0 0 16.12 -2.24 0 0 -16.12zm8.13 0l2.72 0 11.81 13.72 0 -13.72 2.22 0 0 16.12 -2.79 0 -11.71 -13.61 0 13.61 -2.24 0 0 -16.12zm26.97 1.94l-5.91 0 0 -1.94 14.02 0 0 1.94 -5.89 0 0 14.18 -2.22 0 0 -14.18zm12.44 -1.94l13.09 0 0 1.85 -10.85 0 0 5.23 10.78 0 0 1.85 -10.78 0 0 5.34 10.85 0 0 1.85 -13.09 0 0 -16.12zm38.2 7.58l0 0.16c0,0.76 -0.06,1.45 -0.18,2.07 -0.12,0.62 -0.32,1.22 -0.6,1.81 -0.72,1.58 -1.9,2.8 -3.55,3.64 -1.65,0.85 -3.66,1.27 -6.02,1.27 -1.65,0 -3.12,-0.2 -4.42,-0.59 -1.3,-0.4 -2.4,-0.96 -3.31,-1.7 -0.91,-0.74 -1.59,-1.62 -2.04,-2.64 -0.49,-1.1 -0.73,-2.28 -0.73,-3.54 0,-1.26 0.24,-2.44 0.73,-3.54 0.72,-1.57 1.92,-2.78 3.61,-3.64 1.69,-0.86 3.78,-1.29 6.26,-1.29 1.63,0 3.12,0.2 4.46,0.61 1.35,0.4 2.47,1.01 3.37,1.81 0.58,0.52 1.07,1.12 1.47,1.81 0.4,0.69 0.66,1.43 0.77,2.2l-2.44 0c-0.18,-1 -0.68,-1.88 -1.48,-2.63 -0.67,-0.62 -1.53,-1.09 -2.58,-1.39 -1.05,-0.3 -2.22,-0.46 -3.49,-0.46 -1.93,0 -3.57,0.33 -4.9,0.98 -1.33,0.65 -2.27,1.6 -2.82,2.83 -0.35,0.76 -0.53,1.66 -0.53,2.69 0,1.04 0.18,1.93 0.53,2.69 0.55,1.23 1.48,2.18 2.8,2.83 1.32,0.65 2.93,0.98 4.83,0.98 1.78,0 3.33,-0.31 4.66,-0.91 1.32,-0.61 2.26,-1.5 2.81,-2.67 0.21,-0.46 0.36,-0.97 0.43,-1.55l-7.17 0 0 -1.85 9.54 0zm10.34 1.76l-3.2 0 0 6.78 -2.24 0 0 -16.12 9.09 0c1.43,0 2.62,0.22 3.57,0.65 0.95,0.43 1.62,1.08 2,1.93 0.26,0.59 0.39,1.26 0.39,1.99 0,0.85 -0.14,1.59 -0.43,2.22 -0.38,0.84 -1.02,1.47 -1.93,1.91 -0.91,0.43 -2.05,0.65 -3.44,0.65l-0.82 0 7.81 6.78 -3.15 0 -7.65 -6.78zm-3.2 -1.85l6.42 0c1.08,0 1.94,-0.12 2.57,-0.35 0.63,-0.24 1.06,-0.63 1.29,-1.18 0.17,-0.33 0.25,-0.78 0.25,-1.32 0,-0.5 -0.08,-0.91 -0.23,-1.23 -0.24,-0.55 -0.68,-0.94 -1.31,-1.19 -0.63,-0.24 -1.49,-0.36 -2.57,-0.36l-6.42 0 0 5.64zm31.53 4.13l-10.23 0 -2.26 4.5 -2.47 0 8.29 -16.12 3.08 0 8.27 16.12 -2.42 0 -2.26 -4.5zm-0.98 -1.92l-4.13 -8.22 -0.05 0 -4.11 8.22 8.29 0zm9.77 -9.71l2.24 0 0 14.18 7.65 0 0 1.94 -9.89 0 0 -16.12zm14.22 0l13.08 0 0 1.85 -10.85 0 0 5.23 10.78 0 0 1.85 -10.78 0 0 5.34 10.85 0 0 1.85 -13.08 0 0 -16.12zm26.21 16.53c-2.13,0 -3.91,-0.3 -5.34,-0.89 -1.43,-0.59 -2.41,-1.49 -2.94,-2.69 -0.3,-0.7 -0.46,-1.48 -0.46,-2.33l2.3 0c0.03,0.59 0.14,1.11 0.32,1.53 0.4,0.87 1.12,1.51 2.17,1.93 1.05,0.42 2.37,0.63 3.97,0.63 1.42,0 2.62,-0.17 3.6,-0.5 0.98,-0.33 1.63,-0.83 1.93,-1.48 0.12,-0.29 0.18,-0.58 0.18,-0.87 0,-0.27 -0.06,-0.55 -0.18,-0.82 -0.21,-0.46 -0.6,-0.83 -1.18,-1.11 -0.57,-0.28 -1.22,-0.49 -1.95,-0.63 -0.73,-0.14 -1.67,-0.27 -2.81,-0.41l-0.78 -0.11c-1.22,-0.18 -2.26,-0.38 -3.12,-0.59 -0.86,-0.21 -1.62,-0.52 -2.28,-0.91 -0.66,-0.4 -1.13,-0.9 -1.4,-1.51 -0.18,-0.41 -0.27,-0.87 -0.27,-1.37 0,-0.53 0.11,-1.05 0.32,-1.55 0.32,-0.69 0.84,-1.27 1.55,-1.76 0.72,-0.49 1.58,-0.86 2.59,-1.11 1.01,-0.25 2.11,-0.38 3.3,-0.38 1.86,0 3.45,0.3 4.78,0.89 1.33,0.59 2.25,1.45 2.75,2.58 0.29,0.59 0.43,1.29 0.43,2.1l-2.33 0c-0.03,-0.56 -0.14,-1.04 -0.32,-1.41 -0.35,-0.79 -0.98,-1.38 -1.88,-1.77 -0.9,-0.39 -2.04,-0.58 -3.41,-0.58 -1.31,0 -2.44,0.18 -3.4,0.54 -0.96,0.36 -1.58,0.86 -1.85,1.5 -0.09,0.23 -0.14,0.46 -0.14,0.71 0,0.24 0.05,0.47 0.14,0.68 0.18,0.41 0.53,0.74 1.05,0.98 0.52,0.24 1.1,0.43 1.75,0.56 0.65,0.13 1.53,0.28 2.66,0.45l0.73 0.11c1.32,0.2 2.44,0.41 3.36,0.63 0.91,0.22 1.73,0.54 2.46,0.96 0.72,0.42 1.24,0.97 1.54,1.66 0.2,0.41 0.3,0.92 0.3,1.53 0,0.62 -0.11,1.19 -0.34,1.69 -0.47,1.05 -1.39,1.84 -2.75,2.36 -1.36,0.53 -3.04,0.79 -5.04,0.79z"/>
 </g>
</svg>
